<svg id="Layer_1" data-name="Layer 1" xmlns="http://www.w3.org/2000/svg" xmlns:xlink="http://www.w3.org/1999/xlink"
    viewBox="0 0 1140.82 307.56">
    <defs>
        <style>
            .cls-1 {
                fill: url(#radial-gradient);
            }

            .cls-2 {
                fill: url(#linear-gradient);
            }
        </style>
        <radialGradient id="radial-gradient" cx="102.73" cy="26.49" r="524.38" gradientUnits="userSpaceOnUse">
            <stop offset="0.12" stop-color="#eaaf0c" />
            <stop offset="0.33" stop-color="#ff2525" />
            <stop offset="0.58" stop-color="#921999" />
        </radialGradient>
        <linearGradient id="linear-gradient" x1="1116.77" y1="213.17" x2="1167.31" y2="213.17"
            gradientUnits="userSpaceOnUse">
            <stop offset="0" stop-color="#921999" />
            <stop offset="0.41" stop-color="#931b98" />
            <stop offset="0.55" stop-color="#982294" />
            <stop offset="0.66" stop-color="#9f2d8e" />
            <stop offset="0.74" stop-color="#aa3e84" />
            <stop offset="0.81" stop-color="#b95478" />
            <stop offset="0.88" stop-color="#cb7069" />
            <stop offset="0.93" stop-color="#e09057" />
            <stop offset="0.99" stop-color="#f7b443" />
            <stop offset="1" stop-color="#ffc03d" />
        </linearGradient>
    </defs>
    <path d="M35.12,35.13V95.48H75.51v177h79.43V35.13Z" />
    <path
        d="M407,195.08l-41.56-55.54,5.86-6.46,88.83-98H373.22l-77.79,86.13V35.13H216.94v237.3h78.49V213.78l16.79-18.7,1.14-1.28,1,1.28,58.25,77.35h92.31Z" />
    <polygon class="cls-1"
        points="406.89 195.08 216.94 195.08 216.94 272.43 154.94 272.43 154.94 195.08 106.97 195.08 106.97 133.08 154.94 133.08 154.94 35.13 216.94 35.13 216.94 133.08 371.12 133.08 365.24 139.54 406.89 195.08" />
    <path d="M524.24,89.05v12.32h30v18.29h-30v23H500V70.77h58.44V89.05Z" />
    <path d="M566.15,70.77h24.24v71.89H566.15Z" />
    <path
        d="M632.91,124.59h-6.57v18.07H602.1V70.77h34.61a42.48,42.48,0,0,1,17.36,3.28A26.59,26.59,0,0,1,666,111.34a24.7,24.7,0,0,1-10.06,9.14L671,142.66H645.13Zm9.65-32.92c-1.64-1.47-4.11-2.21-7.39-2.21h-8.83v16.85h8.83c3.28,0,5.75-.74,7.39-2.22a9,9,0,0,0,0-12.42Z" />
    <path
        d="M688,142.3a46.54,46.54,0,0,1-13.92-5.39l7.8-17.66A50.17,50.17,0,0,0,693.41,124a44.87,44.87,0,0,0,12.22,1.8c3.36,0,5.75-.32,7.19-1a3.13,3.13,0,0,0,2.16-2.92q0-2.27-2.82-3.39a60.25,60.25,0,0,0-9.3-2.47A104.06,104.06,0,0,1,689,112.31a23.45,23.45,0,0,1-9.65-6.57q-4.11-4.58-4.11-12.38A21.24,21.24,0,0,1,679,81a25.1,25.1,0,0,1,11.35-8.74q7.54-3.18,18.33-3.18a66.71,66.71,0,0,1,14.54,1.59,45.61,45.61,0,0,1,12.58,4.68L728.54,93q-10.59-5.34-20-5.34t-9.35,4.52c0,1.44.93,2.51,2.77,3.23a57.38,57.38,0,0,0,9.15,2.31,94.92,94.92,0,0,1,13.86,3.55,24.15,24.15,0,0,1,9.81,6.52q4.17,4.52,4.16,12.33a21.09,21.09,0,0,1-3.8,12.27,25.5,25.5,0,0,1-11.35,8.73q-7.54,3.24-18.33,3.24A75.16,75.16,0,0,1,688,142.3Z" />
    <path d="M760.69,89.56H739.63V70.77H806V89.56H784.93v53.1H760.69Z" />
    <path
        d="M827.86,139.53a35.61,35.61,0,0,1-14.32-13.35,36.86,36.86,0,0,1-5.19-19.46,36.87,36.87,0,0,1,5.19-19.47A35.61,35.61,0,0,1,827.86,73.9a43.64,43.64,0,0,1,20.55-4.78,45,45,0,0,1,18.69,3.7A34.6,34.6,0,0,1,880.66,83.5l-15.3,13.66q-6.69-8.41-15.72-8.42-7.6,0-12.22,4.88c-3.09,3.25-4.62,7.62-4.62,13.1s1.53,9.84,4.62,13.09,7.15,4.88,12.22,4.88q9,0,15.72-8.42l15.3,13.66a34.6,34.6,0,0,1-13.56,10.68,45,45,0,0,1-18.69,3.7A43.64,43.64,0,0,1,827.86,139.53Z" />
    <path
        d="M935.61,130.13H908.29l-4.83,12.53H878.81l31.43-71.89h23.83l31.43,71.89H940.44Zm-6.67-17.46-7-18.08-7,18.08Z" />
    <path
        d="M1000.21,124.59h-6.57v18.07H969.4V70.77H1004a42.51,42.51,0,0,1,17.36,3.28,26.59,26.59,0,0,1,11.91,37.29,24.67,24.67,0,0,1-10.07,9.14l15.1,22.18h-25.88Zm9.66-32.92c-1.64-1.47-4.11-2.21-7.39-2.21h-8.84v16.85h8.84c3.28,0,5.75-.74,7.39-2.22a9,9,0,0,0,0-12.42Z" />
    <path d="M1105.71,124.38v18.28h-59.78V70.77h58.44V89.05h-34.62v8.42h30.41v17.46h-30.41v9.45Z" />
    <path d="M529.27,214.61l-5.44,6.06v17.77H500v-71.9h23.83v26.09l23.63-26.09h26.39l-28.76,31.64,30.2,40.26h-28Z" />
    <path d="M624,225.91H596.65l-4.82,12.53H567.17l31.44-71.9h23.83l31.43,71.9H628.8Zm-6.68-17.46-7-18.08-7,18.08Z" />
    <path d="M657.77,166.54H682v53.1h32.46v18.8h-56.7Z" />
    <path d="M756.68,212.35v26.09H732.44V212l-27.12-45.5H730.9l14.69,24.86,14.79-24.86H783.8Z" />
    <path
        d="M831.25,225.91H803.93l-4.83,12.53H774.45l31.43-71.9h23.84l31.43,71.9H836.08Zm-6.67-17.46-7-18.08-7,18.08Z" />
    <path
        d="M917.63,225.91H890.31l-4.83,12.53H860.83l31.43-71.9H916.1l31.43,71.9H922.46ZM911,208.45l-7-18.08-7,18.08Z" />
    <path d="M1022.3,166.54v71.9h-19.92l-27.33-32.66v32.66H951.43v-71.9h19.92l27.33,32.66V166.54Z" />
    <rect class="cls-2" x="1055.17" y="187.91" width="50.53" height="50.53" />
</svg>